<?xml version="1.0" encoding="UTF-8"?>
<svg xmlns="http://www.w3.org/2000/svg" width="520" height="340" viewBox="0 0 520 340" fill="none">
  <g clip-path="url(#clip0_411_1603)">
    <path d="M0 8C0 3.58172 3.58172 0 8 0H512C516.418 0 520 3.58172 520 8V332C520 336.418 516.418 340 512 340H8C3.58172 340 0 336.418 0 332V8Z" fill="#25303E"></path>
    <g clip-path="url(#clip1_411_1603)">
      <path fill-rule="evenodd" clip-rule="evenodd" d="M174 84H346V256H174V84Z" fill="url(#paint0_linear_411_1603)"></path>
      <path d="M299.129 200.661V202.565C299.129 202.335 299.129 202.106 299.129 201.877C299.083 201.473 299.083 201.065 299.129 200.661Z" fill="white"></path>
      <path d="M269.017 154.978L268.788 155.414C268.88 155.272 268.949 155.118 268.994 154.955L269.017 154.978Z" fill="white"></path>
      <path d="M249.134 147.02C247.093 147.02 229.067 146.86 229.067 153.671C229.06 154.102 229.138 154.531 229.297 154.932C229.364 155.097 229.44 155.258 229.526 155.414L242.002 182.934V197.176C242.002 198.62 242.598 199.469 243.859 199.469H244.456C247.339 198.714 250.018 197.328 252.299 195.41L253.835 194.332C254.163 194.127 254.433 193.844 254.621 193.507C254.81 193.17 254.91 192.791 254.913 192.405V183.003L268.788 155.483C268.88 155.341 268.949 155.187 268.994 155.024C269.154 154.623 269.232 154.194 269.224 153.763C269.224 146.86 251.198 147.02 249.134 147.02ZM249.134 151.24C257.23 151.24 262.435 152.662 264.178 153.671C262.435 154.68 257.298 156.102 249.134 156.102C240.97 156.102 235.856 154.68 234.113 153.671C235.879 152.685 241.039 151.24 249.134 151.24ZM250.808 181.053C250.808 181.374 250.808 181.948 250.808 182.544V191.511L249.914 192.061C248.607 192.818 247.46 193.346 246.153 194.034V182.498C246.147 182.184 246.085 181.873 245.969 181.581L236.2 159.244C240.446 160.19 244.784 160.667 249.134 160.666C253.358 160.662 257.57 160.217 261.702 159.336L250.808 181.053Z" fill="white"></path>
      <path d="M290.919 210.408C281.942 216.905 271.132 220.383 260.05 220.338C235.099 220.338 213.817 204.124 208.817 180.205C211.069 180.098 213.224 179.258 214.955 177.813C216.685 176.368 217.896 174.397 218.403 172.201H230.099V167.866H218.449C218.007 165.611 216.823 163.569 215.086 162.065C213.349 160.56 211.158 159.68 208.863 159.565C210.908 151.273 214.935 143.602 220.599 137.21C226.262 130.819 233.393 125.898 241.378 122.871C249.364 119.844 257.965 118.801 266.442 119.831C274.92 120.862 283.02 123.936 290.047 128.788L292.662 125.165C284.883 119.79 275.897 116.423 266.502 115.362C257.107 114.301 247.596 115.58 238.815 119.086C230.034 122.591 222.256 128.213 216.174 135.451C210.092 142.69 205.895 151.32 203.955 160.574C202.177 161.398 200.671 162.713 199.616 164.365C198.561 166.017 198 167.936 198 169.896C198 171.856 198.561 173.775 199.616 175.427C200.671 177.079 202.177 178.395 203.955 179.218C206.628 192.124 213.665 203.714 223.882 212.038C234.099 220.363 246.872 224.914 260.05 224.925C272.058 224.948 283.763 221.167 293.487 214.123L290.919 210.408ZM202.625 169.885C202.615 168.476 203.124 167.113 204.054 166.056C204.985 164.998 206.272 164.32 207.671 164.151H208.359C209.494 164.147 210.604 164.479 211.55 165.106C212.496 165.734 213.234 166.627 213.672 167.675C214.109 168.722 214.226 169.875 214.008 170.989C213.789 172.103 213.245 173.126 212.444 173.931C211.643 174.735 210.621 175.283 209.509 175.506C208.396 175.729 207.242 175.617 206.193 175.184C205.144 174.75 204.247 174.016 203.616 173.072C202.985 172.129 202.648 171.02 202.648 169.885H202.625Z" fill="white"></path>
      <path d="M311.559 180.205C313.509 180.206 315.419 179.655 317.069 178.615C318.718 177.575 320.039 176.089 320.879 174.329C321.719 172.569 322.043 170.607 321.814 168.671C321.584 166.735 320.811 164.903 319.583 163.388C318.356 161.873 316.724 160.736 314.877 160.111C313.03 159.485 311.044 159.395 309.148 159.852C307.252 160.309 305.525 161.293 304.165 162.691C302.806 164.089 301.871 165.844 301.468 167.752H289.543V139.383H295.735C296.07 141.938 297.348 144.275 299.319 145.934C301.289 147.594 303.809 148.457 306.384 148.353C308.958 148.249 311.4 147.186 313.23 145.372C315.061 143.559 316.146 141.127 316.274 138.553C316.402 135.98 315.563 133.452 313.921 131.466C312.28 129.481 309.955 128.18 307.404 127.822C304.853 127.463 302.259 128.072 300.134 129.528C298.009 130.984 296.505 133.183 295.918 135.691L287.479 135.577C287.188 135.515 286.888 135.522 286.6 135.597C286.313 135.672 286.048 135.813 285.825 136.009C285.602 136.205 285.428 136.451 285.317 136.726C285.206 137.001 285.161 137.299 285.185 137.595V167.683H267.55V171.926H285.185V201.923C285.185 202.531 285.427 203.114 285.857 203.544C286.287 203.974 286.87 204.216 287.479 204.216H294.68C295.183 206.726 296.602 208.96 298.661 210.483C300.719 212.006 303.27 212.709 305.818 212.456C308.366 212.203 310.729 211.012 312.448 209.114C314.166 207.216 315.118 204.747 315.118 202.186C315.118 199.626 314.166 197.157 312.448 195.259C310.729 193.361 308.366 192.17 305.818 191.917C303.27 191.664 300.719 192.367 298.661 193.89C296.602 195.413 295.183 197.646 294.68 200.157H289.68L289.566 171.903H301.468C301.938 174.237 303.198 176.337 305.036 177.849C306.875 179.362 309.178 180.194 311.559 180.205ZM311.559 164.151C312.693 164.151 313.801 164.488 314.744 165.118C315.687 165.748 316.422 166.643 316.856 167.691C317.289 168.738 317.403 169.891 317.182 171.003C316.961 172.115 316.415 173.137 315.613 173.939C314.811 174.741 313.789 175.287 312.677 175.508C311.565 175.729 310.412 175.616 309.365 175.182C308.317 174.748 307.422 174.013 306.792 173.07C306.162 172.127 305.825 171.019 305.825 169.885C305.825 168.364 306.429 166.906 307.505 165.831C308.58 164.756 310.038 164.151 311.559 164.151ZM305.825 132.251C306.956 132.256 308.059 132.596 308.996 133.228C309.933 133.86 310.662 134.756 311.089 135.803C311.516 136.849 311.623 137.999 311.397 139.107C311.17 140.214 310.62 141.229 309.816 142.024C309.011 142.818 307.99 143.356 306.88 143.569C305.77 143.783 304.621 143.662 303.58 143.222C302.539 142.782 301.651 142.043 301.03 141.098C300.409 140.154 300.083 139.046 300.092 137.916C300.092 137.162 300.241 136.416 300.531 135.72C300.821 135.024 301.246 134.392 301.781 133.862C302.316 133.331 302.951 132.911 303.649 132.627C304.347 132.343 305.094 132.199 305.848 132.205L305.825 132.251ZM304.679 196.258C305.783 196.253 306.866 196.568 307.796 197.164C308.726 197.76 309.464 198.612 309.922 199.617C310.379 200.623 310.536 201.739 310.375 202.831C310.213 203.924 309.739 204.947 309.009 205.777C308.28 206.606 307.327 207.208 306.264 207.508C305.201 207.809 304.074 207.796 303.018 207.471C301.962 207.147 301.022 206.524 300.312 205.678C299.602 204.832 299.151 203.799 299.014 202.702C299.014 202.473 299.014 202.244 299.014 202.014C299.013 201.605 299.059 201.197 299.152 200.799C299.426 199.53 300.121 198.39 301.124 197.566C302.128 196.742 303.38 196.281 304.679 196.258Z" fill="white"></path>
    </g>
  </g>
  <defs>
    <linearGradient id="paint0_linear_411_1603" x1="172.478" y1="257.522" x2="346" y2="84" gradientUnits="userSpaceOnUse">
      <stop stop-color="#B0084D"></stop>
      <stop offset="1" stop-color="#FF4F8B"></stop>
    </linearGradient>
    <clipPath id="clip0_411_1603">
      <rect width="520" height="340" fill="white"></rect>
    </clipPath>
    <clipPath id="clip1_411_1603">
      <rect width="172" height="172" fill="white" transform="translate(174 84)"></rect>
    </clipPath>
  </defs>
</svg>
