<?xml version="1.0" encoding="UTF-8"?>
<svg xmlns="http://www.w3.org/2000/svg" width="520" height="340" viewBox="0 0 520 340" fill="none">
  <g clip-path="url(#clip0_411_1658)">
    <path d="M0 8C0 3.58172 3.58172 0 8 0H512C516.418 0 520 3.58172 520 8V332C520 336.418 516.418 340 512 340H8C3.58172 340 0 336.418 0 332V8Z" fill="#25303E"></path>
    <g clip-path="url(#clip1_411_1658)">
      <path fill-rule="evenodd" clip-rule="evenodd" d="M174 84H346V256H174V84Z" fill="url(#paint0_linear_411_1658)"></path>
      <path d="M223.318 134.492C229.405 128.416 236.932 123.983 245.197 121.607C253.462 119.231 262.195 118.989 270.579 120.904C278.963 122.819 286.725 126.828 293.138 132.557C299.552 138.287 304.409 145.548 307.254 153.664L311.588 152.15C307.793 141.295 300.716 131.887 291.337 125.231C281.959 118.576 270.743 115 259.243 115C247.743 115 236.527 118.576 227.149 125.231C217.77 131.887 210.693 141.295 206.898 152.15L211.232 153.664C213.743 146.434 217.877 139.875 223.318 134.492Z" fill="white"></path>
      <path d="M295.122 205.585C285.581 215.114 272.647 220.466 259.163 220.466C245.678 220.466 232.745 215.114 223.203 205.585C217.755 200.154 213.621 193.549 211.117 186.275L206.783 187.789C209.865 196.659 215.149 204.602 222.14 210.871C229.131 217.141 237.6 221.533 246.752 223.634C255.904 225.736 265.441 225.48 274.466 222.888C283.492 220.297 291.712 215.456 298.356 208.819C304.351 202.864 308.888 195.604 311.611 187.605L307.277 186.138C304.772 193.467 300.613 200.122 295.122 205.585Z" fill="white"></path>
      <path d="M219.786 169.946C219.791 166.847 218.72 163.842 216.757 161.443C214.794 159.045 212.06 157.401 209.021 156.793C205.981 156.185 202.825 156.65 200.09 158.108C197.356 159.567 195.211 161.929 194.023 164.792C192.835 167.654 192.676 170.841 193.575 173.807C194.473 176.774 196.372 179.337 198.949 181.06C201.526 182.782 204.62 183.558 207.705 183.254C210.789 182.951 213.673 181.587 215.865 179.395C217.112 178.158 218.1 176.686 218.774 175.064C219.447 173.442 219.791 171.703 219.786 169.946ZM212.562 176.161C210.888 177.75 208.667 178.636 206.359 178.636C204.05 178.636 201.83 177.75 200.155 176.161C198.934 174.933 198.104 173.371 197.768 171.673C197.432 169.974 197.606 168.213 198.268 166.613C198.929 165.013 200.049 163.644 201.487 162.678C202.925 161.712 204.615 161.193 206.347 161.186C208.676 161.191 210.909 162.114 212.562 163.754C214.205 165.401 215.127 167.632 215.127 169.958C215.127 172.284 214.205 174.515 212.562 176.161Z" fill="white"></path>
      <path d="M322.184 160.659C320.317 158.792 317.939 157.52 315.35 157.005C312.76 156.49 310.077 156.754 307.638 157.764C305.199 158.774 303.114 160.485 301.647 162.68C300.18 164.875 299.398 167.456 299.398 170.096C299.398 172.736 300.18 175.316 301.647 177.511C303.114 179.706 305.199 181.417 307.638 182.427C310.077 183.437 312.76 183.702 315.35 183.186C317.939 182.671 320.317 181.4 322.184 179.533C324.686 177.03 326.092 173.635 326.092 170.096C326.092 166.556 324.686 163.162 322.184 160.659ZM318.927 176.276C317.284 177.918 315.057 178.84 312.735 178.84C310.413 178.84 308.186 177.918 306.543 176.276C305.728 175.464 305.08 174.499 304.639 173.437C304.197 172.374 303.97 171.235 303.97 170.084C303.97 168.934 304.197 167.794 304.639 166.732C305.08 165.669 305.728 164.704 306.543 163.892C307.347 163.04 308.314 162.357 309.387 161.885C310.46 161.413 311.616 161.161 312.788 161.144C313.96 161.127 315.123 161.345 316.209 161.786C317.295 162.226 318.281 162.88 319.11 163.709C319.939 164.538 320.593 165.524 321.033 166.61C321.474 167.696 321.692 168.86 321.675 170.031C321.658 171.203 321.406 172.36 320.934 173.432C320.462 174.505 319.779 175.472 318.927 176.276Z" fill="white"></path>
      <path d="M240.495 192.238C249.898 182.835 269.047 182.835 278.45 192.238C278.877 192.661 279.453 192.9 280.055 192.903C280.663 192.903 281.247 192.661 281.677 192.231C282.107 191.801 282.348 191.218 282.348 190.609C282.35 190.308 282.292 190.008 282.178 189.729C282.064 189.45 281.896 189.195 281.683 188.981C277.001 183.8 274.532 176.993 274.803 170.015C274.535 163.038 277.004 156.232 281.683 151.049C282.11 150.62 282.35 150.038 282.35 149.433C282.35 148.827 282.11 148.245 281.683 147.816C281.254 147.389 280.672 147.149 280.066 147.149C279.461 147.149 278.879 147.389 278.45 147.816C269.047 157.196 249.898 157.196 240.495 147.816C240.065 147.389 239.484 147.149 238.878 147.149C238.272 147.149 237.691 147.389 237.261 147.816C236.834 148.245 236.594 148.827 236.594 149.433C236.594 150.038 236.834 150.62 237.261 151.049C241.983 156.214 244.493 163.022 244.256 170.015C244.496 177.009 241.985 183.818 237.261 188.981C237.049 189.195 236.881 189.45 236.767 189.729C236.652 190.008 236.595 190.308 236.596 190.609C236.595 190.911 236.652 191.21 236.767 191.49C236.881 191.769 237.049 192.023 237.261 192.238C237.691 192.665 238.272 192.905 238.878 192.905C239.484 192.905 240.065 192.665 240.495 192.238ZM246.435 157.012C254.817 160.292 264.128 160.292 272.51 157.012C269.299 165.391 269.299 174.662 272.51 183.041C264.128 179.761 254.817 179.761 246.435 183.041C249.646 174.662 249.646 165.391 246.435 157.012Z" fill="white"></path>
      <path d="M287.394 179.418L295.122 171.598C295.549 171.168 295.789 170.587 295.789 169.981C295.789 169.375 295.549 168.794 295.122 168.364L287.348 160.59L284.091 163.823L288.013 167.722H277.647V172.309H288.013L284.137 176.185L287.394 179.418Z" fill="white"></path>
      <path d="M231.964 179.464L239.784 171.644C240.211 171.214 240.451 170.633 240.451 170.027C240.451 169.421 240.211 168.84 239.784 168.41L231.964 160.59L228.73 163.823L232.629 167.722H222.607V172.309H232.629L228.73 176.23L231.964 179.464Z" fill="white"></path>
    </g>
  </g>
  <defs>
    <linearGradient id="paint0_linear_411_1658" x1="172.478" y1="257.522" x2="346" y2="84" gradientUnits="userSpaceOnUse">
      <stop stop-color="#B0084D"></stop>
      <stop offset="1" stop-color="#FF4F8B"></stop>
    </linearGradient>
    <clipPath id="clip0_411_1658">
      <rect width="520" height="340" fill="white"></rect>
    </clipPath>
    <clipPath id="clip1_411_1658">
      <rect width="172" height="172" fill="white" transform="translate(174 84)"></rect>
    </clipPath>
  </defs>
</svg>
