<svg width="190" height="172" viewBox="0 0 190 172" fill="none" xmlns="http://www.w3.org/2000/svg">
<path d="M143.447 11.7109L143.459 11.7328L143.472 11.7545L182.498 80.0018C182.499 80.0047 182.501 80.0076 182.503 80.0105C183.483 81.7453 184 83.7091 184 85.709C184 87.709 183.483 89.6728 182.503 91.4076C182.501 91.4105 182.499 91.4134 182.498 91.4163L143.472 159.664L143.445 159.71L143.419 159.757C142.462 161.503 141.073 162.965 139.391 164.004C137.735 165.026 135.851 165.604 133.916 165.687H56.068C54.133 165.594 52.2505 165.008 50.5974 163.982C48.9146 162.937 47.5253 161.469 46.5681 159.718L46.5442 159.675L46.5196 159.632L7.48167 90.9747L7.47512 90.9632C6.50945 89.2736 6 87.3563 6 85.4031C6 83.4512 6.50873 81.5353 7.47307 79.8465C7.47375 79.8453 7.47443 79.8441 7.47512 79.8429L46.5233 11.7613L46.5385 11.7349L46.5534 11.7083C47.5106 9.99944 48.8932 8.57594 50.5609 7.57594C52.2147 6.58425 54.0932 6.04226 56.0131 6H133.984C135.905 6.04344 137.783 6.58606 139.437 7.57789C141.105 8.57825 142.489 10.0019 143.447 11.7109Z" fill="white" stroke="#C1E7FB" stroke-width="12"/>
<path d="M122.99 60.4496C124.342 59.6655 125.896 59.3023 127.454 59.4059C129.012 59.5095 130.505 60.0753 131.743 61.0318C132.982 61.9882 133.91 63.2924 134.412 64.7794C134.913 66.2664 134.965 67.8694 134.56 69.386C134.156 70.9025 133.313 72.2644 132.139 73.2995C130.965 74.3346 129.512 74.9964 127.963 75.2013C126.415 75.4062 124.842 75.145 123.441 74.4506C122.04 73.7563 120.876 72.66 120.095 71.3004C119.576 70.3969 119.239 69.3995 119.104 68.3651C118.969 67.3306 119.037 66.2795 119.306 65.2718C119.575 64.2641 120.038 63.3195 120.671 62.4921C121.303 61.6647 122.091 60.9706 122.99 60.4496Z" fill="#C1E7FB"/>
<path d="M59.1059 74.1509C57.7537 73.3656 56.6634 72.1948 55.9729 70.7865C55.2824 69.3782 55.0226 67.7957 55.2263 66.239C55.4301 64.6823 56.0883 63.2213 57.1177 62.0406C58.1471 60.86 59.5015 60.0127 61.0097 59.6059C62.5179 59.1992 64.1122 59.2511 65.591 59.7553C67.0698 60.2594 68.3668 61.1931 69.318 62.4384C70.2692 63.6836 70.8319 65.1844 70.9349 66.7511C71.038 68.3178 70.6768 69.8801 69.897 71.2405C69.3788 72.1444 68.6885 72.9367 67.8657 73.5723C67.0428 74.2078 66.1034 74.6741 65.1012 74.9444C64.0991 75.2147 63.0537 75.2837 62.025 75.1476C60.9963 75.0114 60.0043 74.6727 59.1059 74.1509Z" fill="#C1E7FB"/>
<path d="M102.889 122.914C102.886 124.484 102.42 126.017 101.55 127.321C100.681 128.625 99.4467 129.64 98.0035 130.239C96.5603 130.838 94.973 130.993 93.4422 130.685C91.9114 130.377 90.5057 129.619 89.4029 128.508C88.3 127.397 87.5494 125.982 87.2459 124.443C86.9424 122.903 87.0996 121.307 87.6977 119.857C88.2958 118.407 89.308 117.168 90.6063 116.296C91.9045 115.424 93.4307 114.959 94.9919 114.959C97.0862 114.959 99.0947 115.795 100.576 117.284C102.057 118.773 102.889 120.793 102.889 122.899" fill="#C1E7FB"/>
<path d="M94.9897 69.3118C96.2186 69.3132 97.4434 69.4534 98.6412 69.7297V48.7297H91.3383V69.7297C92.536 69.4534 93.7608 69.3132 94.9897 69.3118Z" fill="#C1E7FB"/>
<path d="M110.68 90.6856C109.95 93.0511 108.696 95.2196 107.014 97.0289L125.108 107.477L128.76 101.118L110.68 90.6856Z" fill="#C1E7FB"/>
<path d="M79.3053 90.6856L61.2261 101.133L64.8775 107.492L82.9716 97.0438C81.2873 95.2302 80.0338 93.0564 79.3053 90.6856Z" fill="#C1E7FB"/>
<path d="M107.757 85.8206C107.757 88.3593 107.008 90.841 105.606 92.9518C104.203 95.0627 102.209 96.7079 99.8766 97.6794C97.5441 98.6509 94.9774 98.9051 92.5012 98.4098C90.025 97.9146 87.7504 96.6921 85.9652 94.8969C84.1799 93.1018 82.9642 90.8147 82.4716 88.3248C81.9791 85.8349 82.2319 83.254 83.198 80.9086C84.1642 78.5631 85.8003 76.5584 87.8996 75.148C89.9988 73.7376 92.4669 72.9848 94.9916 72.9848C98.3771 72.9848 101.624 74.3371 104.018 76.7443C106.412 79.1515 107.757 82.4164 107.757 85.8206Z" fill="#C1E7FB"/>
<path d="M58.0308 95.6276C59.749 94.6281 61.7235 94.1635 63.7044 94.2925C65.6852 94.4216 67.5835 95.1386 69.1591 96.3527C70.7346 97.5669 71.9166 99.2236 72.5556 101.113C73.1945 103.003 73.2616 105.041 72.7485 106.969C72.2353 108.897 71.165 110.629 69.6728 111.946C68.1806 113.262 66.3337 114.104 64.3656 114.364C62.3976 114.625 60.3969 114.293 58.6167 113.41C56.8364 112.527 55.3566 111.133 54.3645 109.404C53.0354 107.088 52.675 104.336 53.3625 101.753C54.0499 99.1696 55.729 96.9666 58.0308 95.6276Z" fill="#C1E7FB"/>
<path d="M121.919 113.091C120.2 112.093 118.813 110.605 117.935 108.815C117.057 107.025 116.727 105.013 116.986 103.035C117.245 101.056 118.082 99.1984 119.391 97.698C120.7 96.1976 122.423 95.1213 124.34 94.6053C126.258 94.0893 128.284 94.1568 130.164 94.7993C132.043 95.4417 133.691 96.6303 134.898 98.2145C136.106 99.7988 136.819 101.708 136.947 103.699C137.075 105.691 136.613 107.677 135.619 109.404C134.961 110.552 134.085 111.558 133.04 112.364C131.995 113.171 130.802 113.762 129.53 114.104C128.257 114.447 126.93 114.534 125.624 114.36C124.318 114.186 123.059 113.755 121.919 113.091Z" fill="#C1E7FB"/>
<path d="M105.022 48.7281C105.022 50.7236 104.433 52.6743 103.331 54.3335C102.228 55.9928 100.661 57.286 98.8276 58.0496C96.9941 58.8133 94.9766 59.0131 93.0302 58.6238C91.0837 58.2345 89.2958 57.2735 87.8925 55.8625C86.4892 54.4514 85.5336 52.6536 85.1464 50.6965C84.7593 48.7393 84.958 46.7106 85.7174 44.867C86.4769 43.0233 87.763 41.4476 89.4131 40.3389C91.0632 39.2303 93.0032 38.6385 94.9877 38.6385C97.6489 38.6385 100.201 39.7015 102.083 41.5937C103.965 43.4858 105.022 46.0522 105.022 48.7281Z" fill="#C1E7FB"/>
</svg>
